# xmcd
#
# Track frame offsets: 
#        150
#        11123
#        22808
#        34148
#        46919
#        58719
#        68753
#        79248
#        91276
#        105357
#
# Disc length: 1551 seconds
#
# Revision: 0
# Processed by: cddbd v1.5.2PL0 Copyright (c) Steve Scherf et al.
# Submitted via: ExactAudioCopy v0.99pb4
#
DISCID=72060d0a
DTITLE=Drifters, The - Best of R&B Soul Stars
DYEAR=2005
DGENRE=R&B
TTITLE0=Save the Last Dance for Me
TTITLE1=Under the Boardwalk
TTITLE2=Up on the Roof
TTITLE3=On Broadway
TTITLE4=Money Honey (Live)
TTITLE5=There Goes My Baby
TTITLE6=Dance With Me
TTITLE7=This Magic Moment
TTITLE8=I Count the Tears
TTITLE9=Saturday Night at the Movies (Live)
EXTD=
EXTT0=
EXTT1=
EXTT2=
EXTT3=
EXTT4=
EXTT5=
EXTT6=
EXTT7=
EXTT8=
EXTT9=
PLAYORDER=
